#tb 0: 1/25
0,          0,          0,        1,   162176, 56d4b5bfb2f08741c34ebb18dc5baf13
0,          1,          1,        1,   161928, ac877a6e1afeb6813e5b79110dd5b847
0,          2,          2,        1,   163584, 0559b537142474bdebc6fa2af9cca544
0,          3,          3,        1,   162652, 3c36b59df75490a091035dfd6ebcbe01
0,          4,          4,        1,   162208, d411c2aacdbdb828dae6bcd522a8b5d3
0,          5,          5,        1,   162980, 658724afc8be5ceff75cb308a99267cb
0,          6,          6,        1,   162468, 9dcb4ed413892aae0f3490d9baca4ddd
0,          7,          7,        1,   162252, 2bc2f2fa252036ddf8241a0f1956ea8c
0,          8,          8,        1,   162452, 4d41518201cb1295aad71df4fb1fedb9
0,          9,          9,        1,   162456, 6811e63d77b8e842c13fba38afd65017
0,         10,         10,        1,   162380, 710437537764369906cdf1858aea9e70
0,         11,         11,        1,   162100, 60d1d475a78e1222a3f116db88d6dc8c
0,         12,         12,        1,   160932, d9b8588ab35792e70c51354faea611cc
0,         13,         13,        1,   162088, 3d88ee1f80ae7877afc5c142758a9346
0,         14,         14,        1,   162576, e3357aea30458fb86c05d2a9cb5f3c8e
0,         15,         15,        1,   162536, 117a4eae0ed02bb6ae32d23e591a3ae4
0,         16,         16,        1,   161852, fa14269ae83e546dbbfa40f1aaf82bc8
0,         17,         17,        1,   162456, 8c40b4e6507f7af04b1cae3848d6cfcc
0,         18,         18,        1,   161404, 7211261a35fef4fae67b160eac1eb259
0,         19,         19,        1,   161324, cd634211ef67871bd6860ec005ac0118
0,         20,         20,        1,   160708, 8b65a6f7459670dd8ba5fb01b1344065
0,         21,         21,        1,   161064, 85203e969ec6e8081c7cea4bb65de1cf
0,         22,         22,        1,   161136, 296f3621d6b7f630768e5d7437629c42
0,         23,         23,        1,   162248, ce43a1896160c289bbe5d56dafeeebc7
0,         24,         24,        1,   162180, 0411ba4d9bdb8ea145a38214cab93aff
0,         25,         25,        1,   161976, e6bb765a977e81afff62aab1a1a2ca2f
0,         26,         26,        1,   161956, 8528eee65853c2e7298eb9e3c6ca9fa2
0,         27,         27,        1,   161244, 332fa087a6ceceb610f3895ca5d81e4c
0,         28,         28,        1,   160952, 4f3b0b92e63bdd0fd3f102e968e6f432
0,         29,         29,        1,   160260, dd2de3bce5b80161547e33a748ce6b6a
0,         30,         30,        1,   161040, 1306d4826a20d22810f19579e93d0f63
0,         31,         31,        1,   161940, 1724203fd332573e778624d61c3251b0
0,         32,         32,        1,   161388, da336f3865edf7e54ae14ca6d01de859
0,         33,         33,        1,   162012, 2a04855ce96edec00e1860722e0f23a2
0,         34,         34,        1,   161888, 4e525c0ff2ddfe1dd74f655037c52f39
0,         35,         35,        1,   161948, 4a4723b617c8b142a3d9a1b30bf0c99c
0,         36,         36,        1,   161400, a8250f7d6da6e7eb91c5b042679737e2
0,         37,         37,        1,   161904, 15f4274bbaaa517865d0e212a03ee5fa
0,         38,         38,        1,   160680, f7ee2864aa4c1c555fe0176b1b886294
0,         39,         39,        1,   161060, 0f9eb1b9a798fe070d5d5b1587106e12
0,         40,         40,        1,   160736, 988f20899af28deb7187cb89268fac7a
0,         41,         41,        1,   161464, c279f41499a76c4548200859a3990d8b
0,         42,         42,        1,   160688, 6d730f0c2a195845050af864af9f6bf1
0,         43,         43,        1,   160768, ae1a3ad132c3ad269ca156d4948df74e
0,         44,         44,        1,   160936, 32d6264955012575fad51675ef40b72b
0,         45,         45,        1,   160280, aabff2df269f802b05d07c2bdcd7deae
0,         46,         46,        1,   159680, 57f2bf1bca662fd2652dc9a04b883295
0,         47,         47,        1,   158916, 5dfd2f6a29c73972d7f7431bc4e7f099
0,         48,         48,        1,   159164, 1eeee6293474fc26cefad5cb2174d088
0,         49,         49,        1,   158692, 56cee1ab036ccdfc9de75475d31fc221
